<svg id="Layer_1" data-name="Layer 1" xmlns="http://www.w3.org/2000/svg" xmlns:xlink="http://www.w3.org/1999/xlink" viewBox="0 0 49.05 44.55"><defs><style>.cls-1{fill:none;}.cls-2{clip-path:url(#clip-path);}.cls-3,.cls-4{fill:#42a5f5;}.cls-4{stroke:#fff;stroke-miterlimit:10;stroke-width:0.32px;}</style><clipPath id="clip-path" transform="translate(-2.48 -5.85)"><rect class="cls-1" width="54" height="54"/></clipPath></defs><title>mambo_logo_primaryColor_54x54px</title><g class="cls-2"><path class="cls-3" d="M50.63,30.6H47.84a21.15,21.15,0,1,0-41.67,0H3.38a.9.9,0,1,0,0,1.8H22.76l.48-1.8H8a19.35,19.35,0,1,1,38,0H30.76l.48,1.8H50.63a.9.9,0,0,0,0-1.8Z" transform="translate(-2.48 -5.85)"/><path class="cls-3" d="M34.37,23.87a.9.9,0,0,0-1.27-.08A9.21,9.21,0,0,1,27,26.1h0A9.21,9.21,0,0,1,20.9,23.8a.9.9,0,0,0-1.19,1.35,11,11,0,0,0,6.13,2.69l-3.21,12a.9.9,0,1,0,1.74.47L27,30.48l5.16,19.26a.9.9,0,1,0,1.74-.47L28.16,27.83a11,11,0,0,0,6.13-2.69A.9.9,0,0,0,34.37,23.87Z" transform="translate(-2.48 -5.85)"/><path class="cls-3" d="M27,9.54a17.52,17.52,0,0,0-15.12,8.73.58.58,0,0,0,.5.87.58.58,0,0,0,.5-.29,16.29,16.29,0,0,1,28.22,0,.58.58,0,0,0,1-.58A17.52,17.52,0,0,0,27,9.54Z" transform="translate(-2.48 -5.85)"/><path class="cls-3" d="M41.37,19.43h0Z" transform="translate(-2.48 -5.85)"/><path class="cls-3" d="M41,19.25l.06,0Z" transform="translate(-2.48 -5.85)"/><path class="cls-3" d="M41.69,19.45h0Z" transform="translate(-2.48 -5.85)"/><path class="cls-3" d="M27,12.92a14.13,14.13,0,0,0-12.19,7,.58.58,0,0,0,.5.87.58.58,0,0,0,.5-.29,12.92,12.92,0,0,1,22.37,0,.58.58,0,0,0,1-.58A14.13,14.13,0,0,0,27,12.92Z" transform="translate(-2.48 -5.85)"/><path class="cls-3" d="M15.54,21.12h0Z" transform="translate(-2.48 -5.85)"/><path class="cls-3" d="M15.82,21l.06,0Z" transform="translate(-2.48 -5.85)"/><path class="cls-3" d="M15.16,21.13h0Z" transform="translate(-2.48 -5.85)"/><path class="cls-3" d="M18.74,22.67l.06,0Z" transform="translate(-2.48 -5.85)"/><path class="cls-3" d="M18.46,22.81h0Z" transform="translate(-2.48 -5.85)"/><path class="cls-3" d="M27,16.29a10.74,10.74,0,0,0-9.27,5.35.58.58,0,1,0,1,.58,9.54,9.54,0,0,1,16.53,0,.58.58,0,0,0,1-.58A10.75,10.75,0,0,0,27,16.29Z" transform="translate(-2.48 -5.85)"/><path class="cls-3" d="M18.08,22.82h0Z" transform="translate(-2.48 -5.85)"/><path class="cls-4" d="M18.56,41.61" transform="translate(-2.48 -5.85)"/><path class="cls-3" d="M18.33,40.74h0Z" transform="translate(-2.48 -5.85)"/><path class="cls-3" d="M18.06,40.88l-.06,0Z" transform="translate(-2.48 -5.85)"/><path class="cls-3" d="M27,43.29a16.28,16.28,0,0,1-8.15-2.18.58.58,0,1,0-.58,1A17.44,17.44,0,0,0,27,44.46a.58.58,0,0,0,0-1.16Z" transform="translate(-2.48 -5.85)"/><path class="cls-3" d="M18.71,40.73h0Z" transform="translate(-2.48 -5.85)"/><path class="cls-4" d="M16.88,44.53" transform="translate(-2.48 -5.85)"/><path class="cls-3" d="M27,46.67A19.66,19.66,0,0,1,17.17,44a.58.58,0,0,0-.58,1A20.82,20.82,0,0,0,27,47.83a.58.58,0,0,0,0-1.16Z" transform="translate(-2.48 -5.85)"/><path class="cls-3" d="M16.65,43.67h0Z" transform="translate(-2.48 -5.85)"/><path class="cls-3" d="M17,43.65h0Z" transform="translate(-2.48 -5.85)"/><path class="cls-3" d="M16.37,43.8l-.06,0Z" transform="translate(-2.48 -5.85)"/><path class="cls-3" d="M6.11,34.88a.58.58,0,0,0,.58.58h12.1l-.54.54-6.59,6.59-.54.54V40.5a.58.58,0,1,0-1.16,0v5.44l9.12-9.12.54-.54v2.38a.58.58,0,0,0,1.16,0V34.29H6.69A.58.58,0,0,0,6.11,34.88Z" transform="translate(-2.48 -5.85)"/><path class="cls-3" d="M47.25,34.29H33.17v4.37a.58.58,0,0,0,1.16,0V36.28l.54.54L44,45.94V40.5a.58.58,0,0,0-1.16,0v2.63l-.54-.54L35.7,36l-.54-.54h12.1a.58.58,0,0,0,0-1.16Z" transform="translate(-2.48 -5.85)"/><path class="cls-3" d="M28.35,21.94a1.35,1.35,0,0,1-.55-2.58,2.7,2.7,0,1,0,1.78,1.78A1.35,1.35,0,0,1,28.35,21.94Z" transform="translate(-2.48 -5.85)"/></g></svg>