<?xml version="1.0" encoding="utf-8"?>
<!-- Generator: Adobe Illustrator 21.1.0, SVG Export Plug-In . SVG Version: 6.00 Build 0)  -->
<svg version="1.1" id="Layer_1" xmlns="http://www.w3.org/2000/svg" xmlns:xlink="http://www.w3.org/1999/xlink" x="0px" y="0px"
	 viewBox="0 0 120 120" style="enable-background:new 0 0 120 120;" xml:space="preserve">
<style type="text/css">
	.st0{fill:none;stroke:#000000;stroke-width:3.9997;stroke-linecap:round;stroke-miterlimit:10;}
</style>
<g>
	<path d="M27.5,43.3c-0.3,0-0.7-0.1-1-0.3c-1-0.6-1.3-1.8-0.7-2.7C32.8,28.1,46,20.5,60,20.5s27.2,7.6,34.2,19.8
		c0.6,1,0.2,2.2-0.7,2.7c-1,0.6-2.2,0.2-2.7-0.7c-6.3-11-18.1-17.8-30.7-17.8s-24.4,6.8-30.7,17.8C28.9,42.9,28.2,43.3,27.5,43.3z"
		/>
	<path d="M86,47c-0.7,0-1.4-0.4-1.7-1C79.2,37.4,70,32,60,32s-19.2,5.4-24.2,14c-0.6,1-1.8,1.3-2.7,0.7c-1-0.6-1.3-1.8-0.7-2.7
		C38,34.1,48.6,28,60,28s22,6.1,27.7,16c0.6,1,0.2,2.2-0.7,2.7C86.7,46.9,86.3,47,86,47z"/>
	<path d="M79.5,50.8c-0.7,0-1.4-0.4-1.7-1C74.1,43.4,67.3,39.5,60,39.5c-7.3,0-14.1,3.9-17.8,10.3c-0.6,1-1.8,1.3-2.7,0.7
		c-1-0.6-1.3-1.8-0.7-2.7c4.4-7.6,12.5-12.3,21.2-12.3c8.7,0,16.8,4.7,21.2,12.3c0.6,1,0.2,2.2-0.7,2.7
		C80.2,50.7,79.8,50.8,79.5,50.8z"/>
	<path d="M112.5,68h-6.2c0.5-2.7,0.7-5.3,0.7-8c0-25.9-21.1-47-47-47S13,34.1,13,60c0,2.7,0.2,5.3,0.7,8H7.5c-1.1,0-2,0.9-2,2
		s0.9,2,2,2h7h36l1.1-4H17.8c-0.5-2.7-0.8-5.3-0.8-8c0-23.7,19.3-43,43-43c23.7,0,43,19.3,43,43c0,2.7-0.3,5.3-0.8,8H68.4l1.1,4h36
		h7c1.1,0,2-0.9,2-2S113.6,68,112.5,68z"/>
	<path d="M76.4,53.1c-0.7-0.8-2-0.9-2.8-0.2C69.8,56.2,65,58,60,58c0,0,0,0,0,0s0,0,0,0c-5,0-9.8-1.8-13.5-5.1
		c-0.8-0.7-2.1-0.7-2.8,0.2c-0.7,0.8-0.7,2.1,0.2,2.8c3.8,3.4,8.6,5.4,13.6,6l-7.1,26.6c-0.3,1.1,0.3,2.2,1.4,2.4
		c1.1,0.3,2.2-0.3,2.4-1.4L60,67.7l11.5,42.8c0.2,0.9,1,1.5,1.9,1.5c0.2,0,0.3,0,0.5-0.1c1.1-0.3,1.7-1.4,1.4-2.4L62.6,61.9
		c5-0.5,9.8-2.6,13.6-6C77,55.1,77.1,53.9,76.4,53.1z"/>
</g>
<g>
	<path d="M60,99.5c-6.9,0-13.8-1.8-19.7-5.3c-1-0.6-1.3-1.8-0.7-2.7s1.8-1.3,2.7-0.7c5.4,3.1,11.5,4.8,17.7,4.8c1.1,0,2,0.9,2,2
		S61.1,99.5,60,99.5z"/>
</g>
<g>
	<path d="M60,107c-8.2,0-16.4-2.2-23.5-6.3c-1-0.6-1.3-1.8-0.7-2.7s1.8-1.3,2.7-0.7C45,101,52.5,103,60,103c1.1,0,2,0.9,2,2
		S61.1,107,60,107z"/>
</g>
<path d="M14.9,75.5c-1.1,0-2,0.9-2,2s0.9,2,2,2H40L25.4,94.1V90c0-1.1-0.9-2-2-2s-2,0.9-2,2v13.8l21.5-21.5v3.6c0,1.1,0.9,2,2,2
	s2-0.9,2-2V75.5H14.9z"/>
<path d="M105,75.5H73v10.4c0,1.1,0.9,2,2,2s2-0.9,2-2v-3.6l21.5,21.5V90c0-1.1-0.9-2-2-2s-2,0.9-2,2v4.1L79.8,79.5H105
	c1.1,0,2-0.9,2-2S106.1,75.5,105,75.5z"/>
<path d="M63,48.8c-1.7,0-3-1.3-3-3c0-1.2,0.7-2.3,1.8-2.7c-0.6-0.2-1.2-0.3-1.8-0.3c-3.3,0-6,2.7-6,6s2.7,6,6,6c3.3,0,6-2.7,6-6
	c0-0.6-0.1-1.2-0.3-1.8C65.3,48,64.2,48.8,63,48.8z"/>
</svg>
