<svg id="Layer_1" data-name="Layer 1" xmlns="http://www.w3.org/2000/svg" viewBox="0 0 120 120"><defs><style>.cls-1{fill:#42a5f5;}</style></defs><title>mambo_logo_primaryColor_120x120px</title><path class="cls-1" d="M27.53,43.25a2,2,0,0,1-1.73-3,39.49,39.49,0,0,1,68.41,0,2,2,0,0,1-3.46,2,35.49,35.49,0,0,0-61.48,0A2,2,0,0,1,27.53,43.25Z"/><path class="cls-1" d="M86,47a2,2,0,0,1-1.73-1,28,28,0,0,0-48.49,0,2,2,0,1,1-3.46-2,32,32,0,0,1,55.42,0A2,2,0,0,1,86,47Z"/><path class="cls-1" d="M79.49,50.75a2,2,0,0,1-1.73-1,20.49,20.49,0,0,0-35.5,0,2,2,0,1,1-3.46-2,24.49,24.49,0,0,1,42.43,0,2,2,0,0,1-1.73,3Z"/><path class="cls-1" d="M112.5,68h-6.19a47,47,0,1,0-92.61,0H7.5a2,2,0,0,0,0,4H50.57l1.07-4H17.76a43,43,0,1,1,84.49,0H68.36l1.07,4H112.5a2,2,0,0,0,0-4Z"/><path class="cls-1" d="M76.38,53.05a2,2,0,0,0-2.82-.18A20.46,20.46,0,0,1,60,58h0a20.46,20.46,0,0,1-13.53-5.12,2,2,0,1,0-2.65,3,24.45,24.45,0,0,0,13.63,6L50.3,88.46a2,2,0,0,0,3.86,1L60,67.73l11.47,42.79a2,2,0,0,0,3.86-1L62.57,61.86a24.44,24.44,0,0,0,13.63-6A2,2,0,0,0,76.38,53.05Z"/><path class="cls-1" d="M60,99.5a39.47,39.47,0,0,1-19.75-5.3,2,2,0,1,1,2-3.46A35.47,35.47,0,0,0,60,95.5a2,2,0,0,1,0,4Z"/><path class="cls-1" d="M60,107a47,47,0,0,1-23.5-6.3,2,2,0,0,1,2-3.46A43,43,0,0,0,60,103a2,2,0,0,1,0,4Z"/><path class="cls-1" d="M14.87,75.5a2,2,0,0,0,0,4H40L25.41,94.14V90a2,2,0,0,0-4,0v13.79L42.87,82.33v3.58a2,2,0,0,0,4,0V75.5Z"/><path class="cls-1" d="M105,75.5H73V85.91a2,2,0,0,0,4,0V82.33l21.47,21.47V90a2,2,0,0,0-4,0v4.14L79.83,79.5H105a2,2,0,0,0,0-4Z"/><path class="cls-1" d="M63,48.75A3,3,0,0,1,61.77,43a6,6,0,1,0,4,4A3,3,0,0,1,63,48.75Z"/></svg>