<svg id="Layer_1" data-name="Layer 1" xmlns="http://www.w3.org/2000/svg" viewBox="0 0 54 54"><defs><style>.cls-1{fill:#42a5f5;}</style></defs><title>mambo_logo_primaryColorBackground_54x54px</title><path class="cls-1" d="M0,0V54H54V0ZM11.66,42.59,18.25,36l.54-.54H6.69a.58.58,0,1,1,0-1.16H20.77v4.37a.58.58,0,0,1-1.16,0V36.28l-.54.54L10,45.94V40.5a.58.58,0,1,1,1.16,0v2.63ZM27,47.83A20.82,20.82,0,0,1,16.59,45a.58.58,0,0,1,.58-1A19.66,19.66,0,0,0,27,46.67a.58.58,0,0,1,0,1.16Zm0-3.37a17.44,17.44,0,0,1-8.73-2.34.58.58,0,0,1-.21-.79.58.58,0,0,1,.79-.21A16.28,16.28,0,0,0,27,43.29a.58.58,0,0,1,0,1.16Zm6.26,5.91a.89.89,0,0,1-.23,0,.9.9,0,0,1-.87-.67L27,30.48l-2.63,9.8a.9.9,0,1,1-1.74-.47l3.21-12a11,11,0,0,1-6.13-2.69A.9.9,0,0,1,20.9,23.8,9.21,9.21,0,0,0,27,26.1h0A9.21,9.21,0,0,0,33.1,23.8a.9.9,0,1,1,1.19,1.35,11,11,0,0,1-6.13,2.69L33.9,49.27A.9.9,0,0,1,33.26,50.37ZM18.74,22.23a.58.58,0,0,1-1-.58,10.7,10.7,0,0,1,18.54,0,.58.58,0,0,1-1,.58,9.54,9.54,0,0,0-16.53,0Zm-2.92-1.69a.58.58,0,0,1-1.06-.14.58.58,0,0,1,.06-.44,14.08,14.08,0,0,1,24.39,0,.58.58,0,0,1-1,.58,12.92,12.92,0,0,0-22.37,0Zm25.8-1.4a.58.58,0,0,1-.5-.29,16.29,16.29,0,0,0-28.22,0,.58.58,0,0,1-.79.21.58.58,0,0,1-.21-.79,17.45,17.45,0,0,1,30.23,0,.58.58,0,0,1-.5.87ZM28.35,21.94a1.35,1.35,0,0,0,1.23-.8,2.7,2.7,0,1,1-1.78-1.78,1.35,1.35,0,0,0,.55,2.58Zm18.9,13.52H35.15l.54.54,6.59,6.59.54.54V40.5a.58.58,0,0,1,1.16,0v5.44l-9.12-9.12-.54-.54v2.38a.58.58,0,0,1-1.16,0V34.29H47.25a.58.58,0,0,1,0,1.16Zm3.38-3.06H31.24l-.48-1.8H46a19.35,19.35,0,1,0-38,0H23.24l-.48,1.8H3.38a.9.9,0,0,1,0-1.8H6.16a21.15,21.15,0,1,1,41.67,0h2.79a.9.9,0,0,1,0,1.8Z"/></svg>