<?xml version="1.0" encoding="utf-8"?>
<!-- Generator: Adobe Illustrator 21.1.0, SVG Export Plug-In . SVG Version: 6.00 Build 0)  -->
<svg version="1.1" id="Layer_1" xmlns="http://www.w3.org/2000/svg" xmlns:xlink="http://www.w3.org/1999/xlink" x="0px" y="0px"
	 viewBox="0 0 54 54" style="enable-background:new 0 0 54 54;" xml:space="preserve">
<style type="text/css">
	.st0{clip-path:url(#SVGID_2_);}
	.st1{fill:#FA6559;}
</style>
<g>
	<g>
		<defs>
			<rect id="SVGID_1_" y="0" width="54" height="54"/>
		</defs>
		<clipPath id="SVGID_2_">
			<use xlink:href="#SVGID_1_"  style="overflow:visible;"/>
		</clipPath>
		<g class="st0">
			<path class="st1" d="M50.6,30.6h-2.8c0.2-1.2,0.3-2.4,0.3-3.6c0-11.7-9.5-21.1-21.2-21.1S5.8,15.3,5.8,27c0,1.2,0.1,2.4,0.3,3.6
				H3.4c-0.5,0-0.9,0.4-0.9,0.9s0.4,0.9,0.9,0.9h3.2h16.2l0.5-1.8H8c-0.2-1.2-0.3-2.4-0.3-3.6C7.7,16.3,16.3,7.7,27,7.7
				s19.3,8.7,19.3,19.4c0,1.2-0.1,2.4-0.3,3.6H30.8l0.5,1.8h16.2h3.2c0.5,0,0.9-0.4,0.9-0.9C51.5,31,51.1,30.6,50.6,30.6z"/>
			<path class="st1" d="M34.4,23.9c-0.3-0.4-0.9-0.4-1.3-0.1c-1.7,1.5-3.8,2.3-6.1,2.3l0,0l0,0c-2.2,0-4.4-0.8-6.1-2.3
				c-0.4-0.3-0.9-0.3-1.3,0.1c-0.3,0.4-0.3,0.9,0.1,1.3c1.7,1.5,3.9,2.5,6.1,2.7l-3.2,12c-0.1,0.5,0.2,1,0.6,1.1
				c0.5,0.1,1-0.2,1.1-0.6l2.6-9.8l5.2,19.3c0.1,0.4,0.5,0.7,0.9,0.7c0.1,0,0.2,0,0.2,0c0.5-0.1,0.8-0.6,0.6-1.1l-5.7-21.4
				c2.3-0.2,4.4-1.2,6.1-2.7C34.7,24.8,34.7,24.2,34.4,23.9z"/>
			<g>
				<g>
					<path class="st1" d="M27,9.5c-6.2,0-12,3.3-15.1,8.7c-0.1,0.1-0.1,0.3-0.1,0.4s0.1,0.3,0.3,0.4c0.1,0.1,0.2,0.1,0.3,0.1
						c0.2,0,0.4-0.1,0.5-0.3c2.9-5,8.3-8.1,14.1-8.1s11.2,3.1,14.1,8.1c0.1,0.2,0.3,0.3,0.5,0.3c0.1,0,0.2,0,0.3-0.1
						c0.3-0.2,0.4-0.5,0.2-0.8C39,12.9,33.2,9.5,27,9.5z"/>
				</g>
				<g>
					<path class="st1" d="M27,12.9c-5,0-9.7,2.7-12.2,7c-0.1,0.1-0.1,0.3-0.1,0.4s0.1,0.3,0.3,0.4c0.1,0.1,0.2,0.1,0.3,0.1
						c0.2,0,0.4-0.1,0.5-0.3c2.3-4,6.6-6.5,11.2-6.5s8.9,2.5,11.2,6.5c0.1,0.2,0.3,0.3,0.5,0.3c0.1,0,0.2,0,0.3-0.1
						c0.3-0.2,0.4-0.5,0.2-0.8C36.7,15.6,32,12.9,27,12.9z"/>
				</g>
				<g>
					<path class="st1" d="M18.7,22.7C18.8,22.7,18.8,22.6,18.7,22.7C18.8,22.6,18.8,22.7,18.7,22.7z"/>
					<path class="st1" d="M27,16.3c-3.8,0-7.4,2.1-9.3,5.4c-0.2,0.3-0.1,0.6,0.2,0.8c0.1,0.1,0.2,0.1,0.3,0.1c0.2,0,0.4-0.1,0.5-0.3
						c1.7-2.9,4.9-4.8,8.3-4.8s6.6,1.8,8.3,4.8c0.1,0.2,0.3,0.3,0.5,0.3c0.1,0,0.2,0,0.3-0.1c0.3-0.2,0.4-0.5,0.2-0.8
						C34.4,18.3,30.8,16.3,27,16.3z"/>
				</g>
				<g>
					<g>
						<path class="st1" d="M27,43.3c-2.9,0-5.7-0.8-8.1-2.2C18.8,41,18.7,41,18.6,41c-0.2,0-0.4,0.1-0.5,0.3S18,41.6,18,41.8
							c0,0.1,0.1,0.3,0.3,0.4c2.6,1.5,5.7,2.3,8.7,2.3c0.3,0,0.6-0.3,0.6-0.6S27.3,43.3,27,43.3z"/>
					</g>
				</g>
				<g>
					<g>
						<path class="st1" d="M27,46.7c-3.5,0-6.9-0.9-9.8-2.6C17.1,44,17,44,16.9,44c-0.2,0-0.4,0.1-0.5,0.3c-0.2,0.3-0.1,0.6,0.2,0.8
							c3.2,1.8,6.8,2.8,10.4,2.8c0.3,0,0.6-0.3,0.6-0.6S27.3,46.7,27,46.7z"/>
					</g>
				</g>
				<path class="st1" d="M6.1,34.9c0,0.3,0.3,0.6,0.6,0.6H18h0.8L18.2,36l-6.6,6.6l-0.5,0.5v-0.8v-1.9c0-0.3-0.3-0.6-0.6-0.6
					s-0.6,0.3-0.6,0.6v5.4l9.1-9.1l0.5-0.5V37v1.6c0,0.3,0.3,0.6,0.6,0.6s0.6-0.3,0.6-0.6v-4.4h-14C6.4,34.3,6.1,34.6,6.1,34.9z"/>
				<path class="st1" d="M47.3,34.3H33.2v4.4c0,0.3,0.3,0.6,0.6,0.6s0.6-0.3,0.6-0.6V37v-0.8l0.5,0.5l9.1,9.1v-5.4
					c0-0.3-0.3-0.6-0.6-0.6s-0.6,0.3-0.6,0.6v1.9v0.8l-0.5-0.5L35.7,36l-0.5-0.5H36h11.3c0.3,0,0.6-0.3,0.6-0.6S47.6,34.3,47.3,34.3
					z"/>
			</g>
			<path class="st1" d="M28.3,21.9c-0.7,0-1.4-0.6-1.4-1.4c0-0.5,0.3-1,0.8-1.2c-0.3-0.1-0.5-0.1-0.8-0.1c-1.5,0-2.7,1.2-2.7,2.7
				s1.2,2.7,2.7,2.7s2.7-1.2,2.7-2.7c0-0.3,0-0.5-0.1-0.8C29.4,21.6,28.9,21.9,28.3,21.9z"/>
		</g>
	</g>
</g>
</svg>
