<?xml version="1.0" encoding="utf-8"?>
<!-- Generator: Adobe Illustrator 21.1.0, SVG Export Plug-In . SVG Version: 6.00 Build 0)  -->
<svg version="1.1" xmlns="http://www.w3.org/2000/svg" xmlns:xlink="http://www.w3.org/1999/xlink" x="0px" y="0px"
	 viewBox="0 0 48 48" style="enable-background:new 0 0 48 48;" xml:space="preserve">
<style type="text/css">
	.st0{display:none;}
	.st1{fill:none;stroke:#FFFF00;stroke-width:0.2835;stroke-miterlimit:10;}
</style>
<g id="Layer_1" class="st0">
	
		<image style="display:inline;overflow:visible;" width="220" height="229" xlink:href="../../../../../Desktop/3- PRO/1- LA COOL CO/1- ADMIN/1- CLIENTS/HAND/download.jpg"  transform="matrix(0.2742 0 0 0.2742 -6 -2.7814)">
	</image>
</g>
<g id="Layer_2">
	<path class="st1" d="M1.3,52.2"/>
	<path d="M24,4c-5.7,2.5-7.2,14.5-7.2,14.5v24.4c0,0,0.5,1.1,7.2,1.1s7.2-1.1,7.2-1.1V18.5C31.2,18.5,29.7,6.5,24,4z M24,6.7
		c1.1,0,2,0.9,2,2c0,1.1-0.9,2-2,2s-2-0.9-2-2C22,7.6,22.9,6.7,24,6.7z M19.3,31.6h3v8.2h-3V31.6z M22.8,39.8v-8.2h2.4v8.2H22.8z
		 M28.7,39.8h-3v-8.2h3V39.8z M28.7,31h-9.4v-4.3h9.4V31z M28.7,21.3h-9.4v-1.9l4.7-1.9l4.7,1.9V21.3z"/>
</g>
</svg>
