<?xml version="1.0" encoding="utf-8"?>
<!-- Generator: Adobe Illustrator 21.1.0, SVG Export Plug-In . SVG Version: 6.00 Build 0)  -->
<svg version="1.1" xmlns="http://www.w3.org/2000/svg" xmlns:xlink="http://www.w3.org/1999/xlink" x="0px" y="0px"
	 viewBox="0 0 48 48" style="enable-background:new 0 0 48 48;" xml:space="preserve">
<style type="text/css">
	.st0{opacity:0.5;}
	.st1{fill:#0077C2;}
	.st2{fill:#80D6FF;}
	.st3{fill:#42A5F5;}
	.st4{fill:#9A0007;}
	.st5{fill:#FF6659;}
	.st6{fill:#D32F2F;}
	.st7{fill:#002171;}
	.st8{fill:#5472D3;}
	.st9{fill:#0D47A1;}
</style>
<g id="Layer_2">
</g>
<g id="Layer_3">
</g>
<g id="Layer_4">
	<g>
		<g>
			<path class="st0" d="M46.2,15.9l-17.3-1.1c-0.4-2.6-1.1-5.1-2.2-7.5c-0.7-1.5-2.8-1.5-3.5,0c-1.1,2.4-1.8,4.9-2.2,7.5L3.8,15.9
				c-1,0.1-1.7,0.9-1.7,1.9v3c0,0.9,0.7,1.7,1.6,1.9l8,1c1.5,0.2,3.1,0.3,4.6,0.3h4.9c0.2,0.9,0.4,1.8,0.6,2.7
				c0.7,2.4,1.2,4.9,1.4,7.4c0.1,0.7,0.1,1.2,0.2,1.8l-4.8,0.8c-0.9,0.2-1.5,0.9-1.5,1.8v0.6c0,0.9,0.7,1.7,1.6,1.9l5.2,0.7
				c0,0.8,0.1,1.7,0.1,2.6c0,1.4,1.9,1.4,1.9,0c0-0.9,0.1-1.8,0.1-2.6l5.2-0.7c0.9-0.1,1.6-0.9,1.6-1.9v-0.6c0-0.9-0.7-1.7-1.5-1.8
				l-4.8-0.8c0.1-0.6,0.1-1.2,0.2-1.8c0.2-2.5,0.8-5,1.4-7.4c0.3-0.9,0.5-1.8,0.6-2.7h4.9c1.5,0,3.1-0.1,4.6-0.3l8-1
				c0.9-0.1,1.6-0.9,1.6-1.9v-3C47.9,16.8,47.2,15.9,46.2,15.9z"/>
			<g>
				<path class="st7" d="M23,3.8c0,0,5,0.8,6.1,0.7c1.1-0.2,0.9-0.7,0-1.1C28.2,3,24.9,3,23,3.4c-1.9-0.3-5.2-0.4-6.1,0
					c-0.9,0.4-1.1,0.9,0,1.1C18,4.6,23,3.8,23,3.8z"/>
				<path class="st8" d="M23,4.9L23,4.9c-0.2,0-0.4-0.2-0.4-0.4V3.1c0-0.2,0.2-0.4,0.4-0.4l0,0c0.2,0,0.4,0.2,0.4,0.4v1.3
					C23.4,4.7,23.2,4.9,23,4.9z"/>
				<g>
					<path class="st9" d="M19.1,12.6c-0.4,3.4-0.4,6.7,0.2,9.1v0c0.2,0.9,0.4,1.8,0.6,2.7c0.7,2.4,1.2,4.9,1.4,7.4
						c0.1,0.7,0.1,1.2,0.2,1.8l-4.8,0.8c-0.9,0.2-1.5,0.9-1.5,1.8l0,0.6c0,0.9,0.7,1.7,1.6,1.9l5.2,0.7c0,0.8,0.1,1.7,0.1,2.6
						c0,1.4,1.9,1.4,1.9,0c0-0.9,0.1-1.8,0.1-2.6l5.2-0.7c0.9-0.1,1.6-0.9,1.6-1.9l0-0.6c0-0.9-0.7-1.7-1.5-1.8l-4.8-0.8
						c0.1-0.6,0.1-1.2,0.2-1.8c0.2-2.5,0.8-5,1.4-7.4c0.3-0.9,0.5-1.8,0.6-2.7c0.5-2.4,0.6-5.7,0.2-9.1c-0.4-2.6-1.1-5.1-2.2-7.5
						c-0.7-1.5-2.8-1.5-3.5,0C20.2,7.5,19.5,10,19.1,12.6"/>
					<path class="st8" d="M26.7,21.7h4.9c1.5,0,3.1-0.1,4.6-0.3l8-1c0.9-0.1,1.6-0.9,1.6-1.9v-3c0-1-0.8-1.8-1.8-1.9l-17.3-1.1h-7.8
						L1.8,13.7c-1,0.1-1.7,0.9-1.7,1.9l0,3c0,0.9,0.7,1.7,1.6,1.9l8,1c1.5,0.2,3.1,0.3,4.6,0.3h4.9L26.7,21.7z"/>
					<path class="st8" d="M24,39.5l5.2-0.7c0.9-0.1,1.6-0.9,1.6-1.9l0-0.6c0-0.9-0.7-1.7-1.5-1.8l-4.8-0.8L24,39.5z"/>
					<path class="st8" d="M21.5,33.6l-4.8,0.8c-0.9,0.2-1.5,0.9-1.5,1.8l0,0.6c0,0.9,0.7,1.7,1.6,1.9l5.2,0.7L21.5,33.6z"/>
					<path class="st7" d="M22,39.5v-6.2c0-0.6,0.5-1,1-1h0c0.6,0,1,0.5,1,1v6.2h0c0,0.8-0.1,1.7-0.1,2.6c0,1.4-1.9,1.4-1.9,0
						C22,41.2,22,40.3,22,39.5"/>
				</g>
			</g>
		</g>
		<g>
			<polygon class="st7" points="5.8,13.4 5.8,20.9 8.8,21.3 8.8,13.2 			"/>
			<polygon class="st7" points="37.3,13.2 37.3,21.3 40.3,20.9 40.3,13.4 			"/>
		</g>
	</g>
</g>
</svg>
